# xmcd
#
# Track frame offsets: 
#        150
#        11897
#        22487
#        40600
#        50335
#        67400
#        80669
#        96261
#        106802
#        119157
#        128030
#        139444
#        154397
#        166696
#        175871
#        187152
#
# Disc length: 2701 seconds
#
# Revision: 1
# Processed by: cddbd v1.5.2PL0 Copyright (c) Steve Scherf et al.
# Submitted via: ExactAudioCopyFreeDBPlugin 1.0
#
DISCID=ef0a8b10
DTITLE=Racist Redneck Rebels - Keep The Hate Alive!
DYEAR=2003
DGENRE=Country
TTITLE0=Droppin' the Kids Off in Harlem
TTITLE1=Niggers, Niggers, Niggers
TTITLE2=We Are All Niggers
TTITLE3=The Nigger Crematory
TTITLE4=Pederast Priests
TTITLE5=Marty the Maggot
TTITLE6=Jungle Bunny
TTITLE7=All Good Things Come from Africa
TTITLE8=Blow Up the Middle East
TTITLE9=Free Mumia
TTITLE10=Like a Nigger On Payday
TTITLE11=Nigger Snipers
TTITLE12=Oh My God, I Married a Nigger
TTITLE13=Reparations, My Ass!
TTITLE14=Whatever Happened to That Dear Ol' Klan of Mine?
TTITLE15=The Birds Are Singing
EXTD=YEAR: 2003
EXTT0=
EXTT1=
EXTT2=
EXTT3=
EXTT4=
EXTT5=
EXTT6=
EXTT7=
EXTT8=
EXTT9=
EXTT10=
EXTT11=
EXTT12=
EXTT13=
EXTT14=
EXTT15=
PLAYORDER=
